<?xml version="1.0" standalone="no"?>
<!DOCTYPE svg PUBLIC "-//W3C//DTD SVG 20010904//EN"
 "http://www.w3.org/TR/2001/REC-SVG-20010904/DTD/svg10.dtd">
<svg version="1.0" xmlns="http://www.w3.org/2000/svg"
 width="120.000000pt" height="120.000000pt" viewBox="0 0 120.000000 120.000000"
 preserveAspectRatio="xMidYMid meet">
<metadata>
Created by potrace 1.14, written by Peter Selinger 2001-2017
</metadata>
<g transform="translate(0.000000,120.000000) scale(0.100000,-0.100000)"
fill="#000000" stroke="none">
<path d="M292 1185 c-7 -8 -25 -15 -40 -15 -15 0 -42 -9 -60 -20 -18 -11 -37
-20 -43 -20 -13 0 -79 -66 -79 -79 0 -6 -9 -25 -20 -43 -11 -18 -20 -45 -20
-60 0 -15 -7 -33 -15 -42 -22 -22 -22 -590 0 -612 8 -9 15 -27 15 -42 0 -15 9
-42 20 -60 11 -18 20 -37 20 -43 0 -13 66 -79 79 -79 6 0 25 -9 43 -20 18 -11
45 -20 60 -20 15 0 33 -7 42 -15 22 -22 590 -22 612 0 9 8 27 15 42 15 15 0
42 9 60 20 18 11 37 20 43 20 13 0 79 66 79 79 0 6 9 25 20 43 11 18 20 45 20
60 0 15 7 33 15 42 13 12 15 60 15 306 0 246 -2 294 -15 306 -8 9 -15 27 -15
42 0 15 -9 42 -20 60 -11 18 -20 37 -20 43 0 13 -66 79 -79 79 -6 0 -25 9 -43
20 -18 11 -45 20 -60 20 -15 0 -33 7 -42 15 -22 22 -594 22 -614 0z m198 -325
c12 -7 12 -17 3 -57 -7 -26 -21 -88 -33 -138 -45 -194 -53 -221 -74 -258 -44
-81 -177 -120 -269 -79 -59 26 -81 66 -75 138 6 74 19 86 87 82 l56 -3 3 -53
3 -53 32 3 c35 3 54 31 68 98 4 19 12 58 18 85 6 28 20 90 30 139 10 49 25 92
32 97 18 12 100 11 119 -1z m271 -105 c4 -60 7 -136 8 -167 0 -32 5 -58 9 -58
5 0 39 70 77 156 38 86 75 163 83 170 18 18 152 19 174 2 15 -13 4 -80 -66
-388 -8 -36 -18 -80 -21 -98 -9 -46 -30 -62 -79 -62 -66 0 -70 11 -46 126 25
120 26 154 2 104 -9 -19 -31 -66 -49 -104 -18 -38 -33 -74 -33 -79 0 -26 -35
-47 -77 -47 -81 0 -83 3 -83 147 0 69 -3 124 -6 121 -5 -6 -15 -48 -45 -188
-7 -30 -19 -61 -27 -67 -18 -15 -90 -17 -111 -4 -15 10 -11 37 28 221 43 196
61 283 61 291 0 4 7 15 16 24 13 12 33 15 98 13 l81 -3 6 -110z"/>
</g>
</svg>
